<svg height="512" viewBox="0 0 128 128" width="512" xmlns="http://www.w3.org/2000/svg"><g><g fill="#c1c1c5"><path d="m23.918 43.25a1.749 1.749 0 0 1 -1.557-.949c-4.38-8.5-11.1-17.269-15.523-16.391a1.75 1.75 0 0 1 -.676-3.435c8.361-1.639 16.894 13.533 19.31 18.224a1.749 1.749 0 0 1 -1.554 2.551z"/><g><path d="m48.291 75.25h-20.191c2.809 13.649 7.148 28.558 7.148 28.558h9.752a49.36 49.36 0 0 1 3.291-28.558z"/><path d="m104.435 75.25h-20.189c2.809 13.649 7.148 28.558 7.148 28.558h9.75a49.36 49.36 0 0 1 3.291-28.558z"/></g><path d="m93.326 42.5c5.874-3.875 16.374-14.625 16.374-14.625 4.125 12-3.25 21.875-6.375 27.25z"/></g><path d="m118.875 76.744s1.625-7.5 2.625-13c-6.5-1.625-10.125-11.25-17.692-21-14.193-19.5-56.683-21.75-74.683-15.34s-21 20.933-20.292 33.673c1.5 26.923 9.667 42.731 9.667 42.731h9.75a49.178 49.178 0 0 1 .613-20.708c7.43 2.288 17.273 3.66 30.137 3.647 3.951 0 7.626-.067 11.061-.186 2.317 9.466 4.583 17.25 4.583 17.25h9.75a48.733 48.733 0 0 1 .072-18.2c15.193-1.574 24.774-4.689 34.409-8.867z" fill="#eaeaf0"/><path d="m31.138 34.807a1.75 1.75 0 0 1 -.587-3.4c5.292-1.885 13.166-2.966 21.6-2.966a1.75 1.75 0 0 1 0 3.5c-8.053 0-15.5 1.007-20.428 2.763a1.759 1.759 0 0 1 -.585.103z" fill="#c1c1c5"/><path d="m102.125 48c5.875-3.875 16.375-14.625 16.375-14.625 4.125 12-3.25 21.875-6.375 27.25z" fill="#eaeaf0"/></g></svg>